# xmcd CD database file
#
# Track frame offsets:
#	150
#	9164
#	23621
#	32289
#	43582
#	54448
#	66126
#	74635
#	85104
#	95822
#	109744
#	115734
#	126369
#	137479
#	146049
#	159235
#	168598
#	176783
#	185533
#	194193
#	204897
#	213428
#	224528
#	235375
#	246482
#	259976
#	268955
#
# Disc length: 3702 seconds
#
# Revision: 0
# Processed by: cddbd v1.5.2PL0 Copyright (c) Steve Scherf et al.
# Submitted via: CDex 1.51
#
DISCID=990e741b
DTITLE=Jimmie Logsdon - Midnight Blues
DYEAR=1900
DGENRE=Country
TTITLE0=Jimmie Logsdon/It's Different Now
TTITLE1=Jimmie Logsdon/The Great Judgement Morning
TTITLE2=Jimmie Logsdon/I've Stepped Out Of Darkness
TTITLE3=Jimmie Logsdon/Supper Time
TTITLE4=Jimmie Logsdon/When They Ring Them Golden Bells
TTITLE5=Jimmie Logsdon/Take My Hand Precious Lord
TTITLE6=Jimmie Logsdon/Life Is Like A Mountain Railway
TTITLE7=Jimmie Logsdon/The Letter Edged In Black
TTITLE8=Jimmie Logsdon/When God Comes And Gathers His Jewels
TTITLE9=Jimmie Logsdon/The Death Of Kathy Fiscus
TTITLE10=Jimmie Logsdon/Old Time Religion
TTITLE11=Jimmie Logsdon/Hank Williams Sings The Blues No More
TTITLE12=Jimmie Logsdon/That's When I Love You The Best
TTITLE13=Jimmie Logsdon/Silver Haired Daddy
TTITLE14=Jimmie Logsdon/The Death Of Hank Williams
TTITLE15=Jimmie Logsdon/As Long As We're Together
TTITLE16=Jimmie Logsdon/Blue Moon Of Kentucky
TTITLE17=Jimmie Logsdon/The Beginning Of The End
TTITLE18=Jimmie Logsdon/It Just Don't Matter Now
TTITLE19=Jimmie Logsdon/Folsom Prison Blues
TTITLE20=Jimmie Logsdon/Good Deal Lucille
TTITLE21=Jimmie Logsdon/Midnight Blues
TTITLE22=Jimmie Logsdon/Where The Old Red River Flows
TTITLE23=Jimmie Logsdon/I Guess I've Let You Down
TTITLE24=Jimmie Logsdon/Making Believe
TTITLE25=Jimmie Logsdon/Loneliest Guy In Town
TTITLE26=Jimmie Logsdon/Daddy Don't Go
EXTD=
EXTT0=
EXTT1=
EXTT2=
EXTT3=
EXTT4=
EXTT5=
EXTT6=
EXTT7=
EXTT8=
EXTT9=
EXTT10=
EXTT11=
EXTT12=
EXTT13=
EXTT14=
EXTT15=
EXTT16=
EXTT17=
EXTT18=
EXTT19=
EXTT20=
EXTT21=
EXTT22=
EXTT23=
EXTT24=
EXTT25=
EXTT26=
PLAYORDER=
